<svg xmlns="http://www.w3.org/2000/svg" width="40" height="36" fill="none"><path fill="#28A745" d="M37.654 2.504c-3.805.212-11.37.986-16.039 3.8-.322.194-.505.54-.505.9v24.874c0 .79.878 1.289 1.617.922 4.804-2.38 11.752-3.03 15.188-3.207 1.172-.061 2.084-.987 2.084-2.096V4.602c.001-1.21-1.066-2.17-2.345-2.098Zm-19.27 3.8C13.715 3.49 6.151 2.717 2.346 2.504 1.066 2.433 0 3.392 0 4.602v23.096c0 1.11.912 2.035 2.085 2.096 3.437.177 10.388.827 15.192 3.209.738.366 1.612-.133 1.612-.92V7.192c0-.362-.182-.693-.505-.888Z"/></svg>